<svg width="45" height="45" viewBox="0 0 45 45" fill="none" xmlns="http://www.w3.org/2000/svg">
<rect width="45" height="45" fill="#1E1E1E"/>
<rect x="-78" y="-908" width="390" height="1051" fill="white"/>
<circle cx="22.5" cy="22.5" r="22.5" fill="#DADADA"/>
<path d="M18.2847 25.6855C18.2014 25.8548 18.2014 26.0221 18.2014 26.1903C18.2847 26.7273 18.7514 27.122 19.2973 27.1148H20.6452V32.0756C20.6452 32.5804 20.2243 33 19.7181 33H16.8514C16.6062 32.9976 16.3718 32.8992 16.1986 32.7261C16.0254 32.553 15.9273 32.319 15.9254 32.0745V27.1158H11.0337C10.2753 27.1158 9.76906 26.3586 10.1066 25.6855L17.3566 12.57C17.4526 12.3973 17.5932 12.2533 17.7639 12.1531C17.9345 12.0529 18.1289 12 18.3269 12C18.525 12 18.7194 12.0529 18.89 12.1531C19.0606 12.2533 19.2013 12.3973 19.2973 12.57L22.3317 18.3711L18.2847 25.6855ZM34.8942 25.6855L27.6442 12.57C27.5481 12.3975 27.4075 12.2538 27.237 12.1537C27.0665 12.0537 26.8722 12.0009 26.6744 12.0009C26.4765 12.0009 26.2823 12.0537 26.1118 12.1537C25.9413 12.2538 25.8007 12.3975 25.7046 12.57L22.5848 18.3721L26.6317 25.6845C26.7161 25.8548 26.7161 26.0231 26.7161 26.1903C26.6327 26.7273 26.165 27.122 25.6202 27.1148H24.2702V32.0756C24.2754 32.5845 24.6869 32.9969 25.1973 33H28.2327C28.4781 32.9978 28.7129 32.8998 28.8866 32.727C29.0604 32.5541 29.1592 32.3203 29.1619 32.0756V27.1158H33.9661C34.7265 27.1158 35.2307 26.3586 34.8932 25.6855H34.8942Z" fill="black"/>
</svg>
